<?xml version="1.0" encoding="utf-8"?>
<!-- Generator: Adobe Illustrator 22.1.0, SVG Export Plug-In . SVG Version: 6.00 Build 0)  -->
<svg version="1.1" id="Layer_1" xmlns="http://www.w3.org/2000/svg" xmlns:xlink="http://www.w3.org/1999/xlink" x="0px" y="0px"
	 viewBox="0 0 3313.4 1818.1" style="enable-background:new 0 0 3313.4 1818.1;" xml:space="preserve">
<style type="text/css">
	.st0{fill:#FFFFFF;}
</style>
<g>
	<path d="M1935.4,915.8c-34.5-1.1-68.9,4.4-103.4,2.6c-14.5,17.8-36.5,29.2-61,29.2h-282.8c-43.7,0-79.4-35.7-79.4-79.4v-82.1
		c-34.8,1.9-69.8,4.2-105.3,2.9l0.1,472.8H1407v-247.4h396.2c16.7,0,31.9-2.5,45.7-7.4c13.8-5,26.2-11.8,37.1-20.6
		c11-8.8,20.6-19.2,28.8-31.2C1923.1,943.2,1929.9,930.1,1935.4,915.8C1935.4,915.8,1935.4,915.8,1935.4,915.8z"/>
	<path d="M1416,747.2c12.5-27.5,40.2-46.8,72.4-46.8h283.8c43.7,0,79.4,35.7,79.4,79.4v86c32.8,0,66,0,98.9,0c2-13.5,3-27.1,3-40.9
		c0.1-15.6-1.2-31.2-3.9-46.6c-2.7-15.4-6.8-30.2-12.3-44.3c-5.5-14.1-12.3-27.2-20.6-39.2c-8.2-12.1-17.9-22.5-29-31.3
		c-11.1-8.8-23.6-15.7-37.4-20.8c-13.8-5.1-29.1-7.6-45.8-7.6h-444c-8.6,0-16.3,1.7-23.3,5.1c-7,3.4-13,8.3-18.1,14.6
		c-5.1,6.3-8.9,13.8-11.7,22.6c-2.7,8.8-4.1,18.5-4.1,29.2l0,40.7C1340.9,746.7,1378.5,747.9,1416,747.2z"/>
	<path d="M1964,775.3c46.3,0.1,92.7,0.2,139,0.3c18.6,0.1,35.1,8.1,38,18.3c1.6,5.7-0.2,11.1-3.4,16.5c-6.1,10.2-16.6,18.9-28.9,27
		c-24.5,16.2-54.4,28.7-87.4,39c-9.8,3.1-19.4,5.7-31.1,4.4c-1.8-0.2-3.8,0-5.7,0c-89.4,0-178.9,0-268.3,0c0,0.4,0,0.8,0,1.1
		c-20.5,0-41-0.1-61.5,0c-74.3,0.2-148.5,0.5-222.8,0.7c-2.5,0-4.2,0.2-5.4,0.6c0.8,9.3,0.4,20,5.4,27.8
		c58.4-0.3,116.7-0.6,175.1-0.9c125.9-0.7,251.8-1.4,377.7-2c23.7-0.1,46.5-1.8,66.2-10.1c1.7-0.7,3.6-1.2,5.4-1.8
		c38.5-13,72.9-28.6,99.9-48.8c15.7-11.7,27.8-24.4,32.9-38.9c5.3-15.2,1.7-29.7-16.9-41.7c-18.4-11.9-40.3-20.9-71.3-18.7
		c0,0,0,0,0,0c-46.1-0.2-92.3-0.3-138.4-0.6c-5.2,0-7,0.7-6.7,3.7c0.6,6.5,0.5,13.1,0.7,19.6C1956.6,775.2,1956.6,775.3,1964,775.3z
		"/>
	<path d="M1086.4,885.7c-9,0.3-10.8-0.6-7.3-5.2c20.3-26.3,47.1-50.7,82.1-72.6c10.8-6.7,23.2-12.8,35.7-18.7
		c8.5-4,18.8-5.8,30.5-5.8c30.3,0,496.4-9.6,604.3-11.9c7.1-0.2,7.1-0.2,7-3.8c-0.2-5.7-0.4-11.4-0.6-17.1c-0.1-3.8-0.1-3.8-7.4-3.6
		c-96.6,1.9-193.3,3.8-289.9,5.7c-89.7,1.8-179.4,3.5-269.1,5.3c-13.1,0.3-26.2,1-39.4,1.5c-11.6,0.5-22.9,2.1-32.5,5.6
		c-16.6,6-33.7,12-48.4,19.2c-28.5,14-51.2,30.5-71.1,48.1c-20.1,17.8-34.4,36.7-40.9,57c-0.7,2.3-1.8,4.6-3,6.8
		c-1.6,2.9-1.7,5.6,1.6,8c5.5,4,12.6,6.9,22.5,7.2c6,0.2,12.1,0.2,18.1,0c34.6-0.9,69.3-2,103.9-2.9c36.1-1,72.2-2.1,108.3-3
		c0.1-8.5,0.2-17,0.3-25.5c-38.9,1.1-77.8,2.1-116.7,3.1C1145,883.9,1115.7,884.7,1086.4,885.7z"/>
	<path d="M2063.7,833.9c6.5-0.6,13.4-2,18.1-8.3c3-4,2.8-8.6-0.4-11.9c-8.2-8.5-30.4-4.1-34.6,6.9c-0.1,0.4-0.3,0.7-0.4,1.1
		c-0.7,3.1-0.2,5.4,2.5,7.6C2053.2,832.6,2057.8,833.8,2063.7,833.9z M2061.1,818.4c3.7-0.5,7.5-0.9,11.1-0.3c3,0.5,3.5,3.5,0.8,5.2
		c-3.1,1.9-6.8,3-10.9,4.8c-2.5-1.5-6.4-2.6-6.7-4.3C2054.8,820.6,2058.2,818.8,2061.1,818.4z"/>
</g>
</svg>
