<?xml version="1.0" encoding="utf-8"?>
<!-- Generator: Adobe Illustrator 22.1.0, SVG Export Plug-In . SVG Version: 6.00 Build 0)  -->
<svg version="1.1" id="Layer_1" xmlns="http://www.w3.org/2000/svg" xmlns:xlink="http://www.w3.org/1999/xlink" x="0px" y="0px"
	 viewBox="0 0 3313.4 1818.1" style="enable-background:new 0 0 3313.4 1818.1;" xml:space="preserve">
<style type="text/css">
	.st0{fill:#FFFFFF;}
</style>
<g>
	<path class="st0" d="M1005.9,1256.2c0,5-1.1,8.9-3.4,11.5c-2.3,2.7-5.5,4-9.8,4s-7.6-1.3-9.8-4c-2.3-2.7-3.4-6.5-3.4-11.5v-43.9
		h-18.3v43.9c0,7.2,1.3,13.2,4,18.2c2.7,4.9,6.3,8.6,11,11.1c4.7,2.4,10,3.7,16.1,3.7c6.1,0,11.6-1.2,16.4-3.7
		c4.8-2.5,8.7-6.2,11.5-11.1c2.8-4.9,4.2-11,4.2-18.1v-43.9h-18.4V1256.2z"/>
	<polygon class="st0" points="1101.4,1259.4 1070.6,1212.3 1052.2,1212.3 1052.2,1288.3 1070.6,1288.3 1070.6,1241.6 1101.4,1288.3 
		1119.8,1288.3 1119.8,1212.3 1101.4,1212.3 	"/>
	<polygon class="st0" points="1166.5,1212.3 1148.1,1212.3 1148.1,1288.3 1191,1288.3 1191,1274.2 1166.5,1274.2 	"/>
	<polygon class="st0" points="1215.1,1288.3 1262.4,1288.3 1262.4,1273.6 1233.5,1273.6 1233.5,1256.7 1259.2,1256.7 1259.2,1242.8 
		1233.5,1242.8 1233.5,1226.9 1262.4,1226.9 1262.4,1212.3 1215.1,1212.3 	"/>
	<path class="st0" d="M1310.8,1212.8l-27.9,75.5h19.4l4.7-13.9h28.5l4.7,13.9h19.6l-27.9-75.5H1310.8z M1311.8,1260.5l9.6-28l9.5,28
		H1311.8z"/>
	<path class="st0" d="M1426,1247.8c-3.1-1.6-7.1-3.2-11.9-4.9c-3.4-1.2-6-2.2-7.7-3c-1.8-0.8-3.3-1.8-4.5-3.1
		c-1.2-1.3-1.8-2.8-1.8-4.6c0-2.2,0.7-3.9,2-5.1c1.3-1.1,3.1-1.7,5.2-1.7c2.5,0,4.5,0.7,6,2.2c1.5,1.5,2.4,3.5,2.7,6h19.9
		c-0.6-7-3.5-12.6-8.4-16.6s-11.7-6-20.2-6c-5.2,0-9.9,0.9-13.9,2.6c-4.1,1.8-7.2,4.3-9.5,7.6c-2.3,3.3-3.4,7.2-3.4,11.7
		c0,4.9,1.1,8.8,3.3,11.9c2.2,3.1,4.8,5.3,7.9,6.9c3,1.5,7,3.1,11.8,4.8c3.3,1.1,5.9,2.1,7.7,3c1.9,0.8,3.4,1.9,4.7,3.2
		c1.3,1.3,1.9,2.9,1.9,4.8c0,2.2-0.7,3.9-2,5.2c-1.4,1.3-3.2,1.9-5.6,1.9c-2.7,0-5-0.8-6.7-2.5c-1.8-1.6-2.8-3.9-3.1-6.8h-19.6
		c0.5,7.5,3.5,13.3,9,17.4c5.5,4.2,12.6,6.2,21.1,6.2c5.7,0,10.5-1,14.5-3c4-2,7-4.7,9-8.1c2-3.4,3.1-7.1,3.1-11.1
		c0-5-1.1-9-3.3-12.1C1431.7,1251.8,1429.1,1249.4,1426,1247.8z"/>
	<polygon class="st0" points="1510.3,1241.8 1481.5,1241.8 1481.5,1212.3 1463.1,1212.3 1463.1,1288.3 1481.5,1288.3 1481.5,1256.6 
		1510.3,1256.6 1510.3,1288.3 1528.8,1288.3 1528.8,1212.3 1510.3,1212.3 	"/>
	<polygon class="st0" points="1633.4,1243.3 1618.8,1212.3 1597.7,1212.3 1624.1,1263.1 1624.1,1288.3 1642.6,1288.3 1642.6,1263.1 
		1668.9,1212.3 1648.1,1212.3 	"/>
	<path class="st0" d="M1747.3,1216.1c-5.8-3.3-12.4-5-19.5-5c-7.1,0-13.6,1.7-19.4,5c-5.8,3.3-10.5,8-13.9,13.9
		c-3.4,5.9-5.1,12.6-5.1,20.1c0,7.5,1.7,14.2,5.1,20.1c3.4,6,8,10.6,13.9,13.9c5.8,3.3,12.3,5,19.4,5s13.6-1.7,19.4-5
		c5.8-3.3,10.5-8,13.9-13.9c3.4-6,5.1-12.7,5.1-20.1c0-7.5-1.7-14.1-5.1-20.1S1753.2,1219.4,1747.3,1216.1z M1742.1,1266
		c-3.6,3.9-8.4,5.9-14.3,5.9c-6,0-10.8-2-14.4-5.9c-3.5-3.9-5.3-9.3-5.3-15.9c0-6.7,1.8-12.1,5.3-16c3.6-3.9,8.3-5.9,14.4-5.9
		c6,0,10.8,2,14.4,5.9c3.6,3.9,5.3,9.3,5.3,15.9C1747.5,1256.7,1745.7,1262,1742.1,1266z"/>
	<path class="st0" d="M1836.5,1256.2c0,5-1.1,8.9-3.4,11.5c-2.3,2.7-5.5,4-9.8,4c-4.3,0-7.6-1.3-9.8-4c-2.3-2.7-3.4-6.5-3.4-11.5
		v-43.9h-18.3v43.9c0,7.2,1.3,13.2,4,18.2c2.7,4.9,6.3,8.6,11,11.1c4.7,2.4,10,3.7,16.1,3.7c6.1,0,11.6-1.2,16.4-3.7
		c4.8-2.5,8.7-6.2,11.5-11.1c2.8-4.9,4.2-11,4.2-18.1v-43.9h-18.4V1256.2z"/>
	<path class="st0" d="M1937.3,1250.5c3-3.9,4.6-8.6,4.6-14.1c0-4.7-1-8.8-3.1-12.4c-2.1-3.6-5.2-6.5-9.4-8.6
		c-4.2-2.1-9.3-3.1-15.3-3.1h-31.4v76.1h18.4v-28.7h4.2l16.5,28.7h20.3l-18.1-29.9C1929.9,1257,1934.3,1254.3,1937.3,1250.5z
		 M1920.6,1244.6c-1.7,1.6-4.4,2.4-8.1,2.4h-11.4v-19.3h11.4c3.6,0,6.3,0.9,8,2.6c1.8,1.7,2.6,4.1,2.6,7.1
		C1923.2,1240.6,1922.3,1243,1920.6,1244.6z"/>
	<path class="st0" d="M2042.6,1212.3h-29.8v76.1h18.4v-26.7h11.4c6,0,11-1.1,15.2-3.2c4.2-2.1,7.3-5,9.4-8.7
		c2.1-3.7,3.2-7.9,3.2-12.6c0-7.6-2.4-13.6-7.1-18.1C2058.5,1214.5,2051.6,1212.3,2042.6,1212.3z M2040.6,1246.9h-9.4v-19.8h9.4
		c7.4,0,11.1,3.3,11.1,10C2051.6,1243.7,2048,1246.9,2040.6,1246.9z"/>
	<path class="st0" d="M2150.7,1216.1c-5.8-3.3-12.4-5-19.5-5c-7.1,0-13.6,1.7-19.4,5c-5.8,3.3-10.5,8-13.9,13.9
		c-3.4,5.9-5.1,12.6-5.1,20.1c0,7.5,1.7,14.2,5.1,20.1c3.4,6,8,10.6,13.9,13.9c5.8,3.3,12.3,5,19.4,5s13.6-1.7,19.4-5
		c5.8-3.3,10.5-8,13.9-13.9c3.4-6,5.1-12.7,5.1-20.1c0-7.5-1.7-14.1-5.1-20.1C2161.1,1224.1,2156.5,1219.4,2150.7,1216.1z
		 M2145.5,1266c-3.6,3.9-8.4,5.9-14.3,5.9c-6,0-10.8-2-14.4-5.9c-3.5-3.9-5.3-9.3-5.3-15.9c0-6.7,1.8-12.1,5.3-16
		c3.6-3.9,8.3-5.9,14.4-5.9c6,0,10.8,2,14.4,5.9c3.6,3.9,5.3,9.3,5.3,15.9C2150.9,1256.7,2149.1,1262,2145.5,1266z"/>
	<polygon class="st0" points="2269.1,1267.4 2255.8,1212.3 2235.6,1212.3 2222.3,1267.4 2212.5,1212.3 2192.5,1212.3 2210.7,1288.3 
		2233.5,1288.3 2245.8,1237.5 2257.9,1288.3 2280.7,1288.3 2298.9,1212.3 2279,1212.3 	"/>
	<polygon class="st0" points="2324.2,1288.3 2371.5,1288.3 2371.5,1273.6 2342.6,1273.6 2342.6,1256.7 2368.3,1256.7 2368.3,1242.8 
		2342.6,1242.8 2342.6,1226.9 2371.5,1226.9 2371.5,1212.3 2324.2,1212.3 	"/>
	<path class="st0" d="M2452.2,1250.5c3-3.9,4.6-8.6,4.6-14.1c0-4.7-1-8.8-3.1-12.4c-2.1-3.6-5.2-6.5-9.4-8.6
		c-4.2-2.1-9.3-3.1-15.3-3.1h-31.4v76.1h18.4v-28.7h4.2l16.5,28.7h20.3l-18.1-29.9C2444.7,1257,2449.1,1254.3,2452.2,1250.5z
		 M2435.4,1244.6c-1.7,1.6-4.4,2.4-8.1,2.4H2416v-19.3h11.4c3.6,0,6.3,0.9,8,2.6c1.8,1.7,2.6,4.1,2.6,7.1
		C2438,1240.6,2437.2,1243,2435.4,1244.6z"/>
	<path class="st0" d="M1302.6,1055.7c1.1,2.5,2.6,4.8,4.4,6.8c1.8,2,3.9,3.8,6.2,5.2c2.3,1.5,4.8,2.6,7.6,3.4
		c2.7,0.8,5.6,1.2,8.5,1.2c2.8,0,5.6-0.4,8.2-1.2c2.7-0.8,5.1-1.9,7.5-3.4c2.3-1.5,4.4-3.2,6.2-5.3c1.8-2.1,3.3-4.3,4.4-6.8
		l81.3-181.9h-46.5l-61.3,136.9l-54.5-121.9c-1.2-2.6-2.7-4.9-4.6-7c-1.9-2.1-4-3.9-6.4-5.4c-2.4-1.5-4.9-2.7-7.7-3.5
		c-2.8-0.8-5.6-1.2-8.4-0.8h-0.4c-2.9-0.4-5.7,0-8.4,0.8c-2.8,0.8-5.3,2-7.7,3.5c-2.4,1.5-4.5,3.3-6.3,5.4c-1.9,2.1-3.4,4.4-4.5,7
		l-54.2,121.9l-61.3-136.9h-46.5l81,181.7c1.1,2.5,2.6,4.8,4.5,6.9c1.9,2.1,4,3.8,6.3,5.3c2.4,1.5,4.9,2.6,7.7,3.5
		c2.8,0.8,5.6,1.2,8.6,1.2c2.9,0,5.7-0.4,8.4-1.2c2.7-0.8,5.2-2,7.5-3.5c2.3-1.5,4.4-3.3,6.2-5.3c1.9-2.1,3.3-4.4,4.5-6.9
		l54.7-123.3L1302.6,1055.7z"/>
	<path class="st0" d="M1691.1,875.3h-183.6c-3.5,0-6.7,0.5-9.6,1.6c-2.9,1.1-5.4,2.6-7.5,4.6c-2.1,2-3.7,4.4-4.8,7.2
		c-1.1,2.8-1.7,5.9-1.7,9.3l0.1,174.5h43.5v-76.9h111.4l67,76.9h53.9l-67-76.9h-1.7c6.9,0,13.2-0.8,18.9-2.3
		c5.7-1.6,10.8-3.7,15.4-6.5c4.6-2.8,8.5-6,11.9-9.8c3.4-3.8,6.2-7.9,8.5-12.4c2.3-4.5,3.9-9.2,5.1-14.1c1.1-5,1.7-10,1.7-15
		c0-5-0.5-9.9-1.6-14.8c-1.1-4.9-2.8-9.6-5.1-14c-2.3-4.5-5.1-8.6-8.5-12.4c-3.4-3.8-7.4-7.1-12-9.9c-4.6-2.8-9.7-5-15.4-6.6
		C1704.3,876.1,1698,875.3,1691.1,875.3z M1704.5,943.5c-0.8,2.6-2,4.9-3.6,7c-1.6,2-3.5,3.7-5.9,4.9c-2.3,1.2-5.1,1.9-8.2,1.9
		h-159.5v-43.5h159.5c3.2,0,6,0.6,8.4,1.9c2.4,1.2,4.3,2.9,5.9,4.9c1.6,2,2.7,4.3,3.5,7c0.8,2.6,1.1,5.3,1.1,8
		C1705.7,938.2,1705.3,940.9,1704.5,943.5z"/>
	<polygon class="st0" points="1896.8,1072.5 1940.2,1072.5 1940.2,913.8 2048.9,913.8 2048.9,875.3 1786.5,875.3 1786.5,913.8 
		1896.8,913.8 	"/>
	<path class="st0" d="M2168,873.6c-6.4,0-12.9,4.8-19.4,14.4l-127.3,184.5h52l94.8-138.3l94.8,138.3h52L2187.4,888
		C2180.9,878.4,2174.4,873.6,2168,873.6z"/>
	<path class="st0" d="M2373.4,928.3c1.3-2.9,3.1-5.4,5.4-7.6c2.3-2.2,4.9-3.8,8-5.1c3.1-1.2,6.3-1.8,9.8-1.8H2592v-38.4h-194.5
		c-9.3,0-18,1.7-25.9,5.1c-7.9,3.4-15.2,8.3-21.7,14.7c-6.5,6.4-11.6,13.5-15,21.3c-3.5,7.8-5.2,16.2-5.2,25.4v65.1
		c0,9.1,1.8,17.5,5.3,25.3c3.5,7.8,8.5,14.7,14.9,20.7c3.1,2.9,6.4,5.5,10,7.9c3.6,2.4,7.4,4.5,11.5,6.2c4,1.7,8.2,3.1,12.6,4
		c4.4,0.9,8.9,1.4,13.5,1.4h171.1c3.5,0,6.7-0.5,9.6-1.6c2.9-1.1,5.4-2.6,7.4-4.6c2.1-2,3.7-4.4,4.8-7.2c1.1-2.8,1.7-5.9,1.7-9.3
		v-74.8c0-3.4-0.6-6.5-1.7-9.3c-1.1-2.8-2.8-5.2-4.8-7.2c-2.1-2-4.6-3.6-7.5-4.6c-2.9-1.1-6.1-1.6-9.6-1.6h-128.4v38.4h108.6v43.5
		h-152.1c-3.2,0-6.3-0.7-9.4-2c-3-1.3-5.7-3.1-8-5.3c-2.3-2.2-4.2-4.7-5.6-7.6c-1.4-2.9-2.1-5.8-2.1-8.9v-72.8
		C2371.4,934.3,2372.1,931.2,2373.4,928.3z"/>
	<path class="st0" d="M1464.2,726.4c-34.5-1.1-68.9,4.4-103.4,2.6c-14.5,17.8-36.5,29.2-61,29.2h-282.8c-43.7,0-79.4-35.7-79.4-79.4
		v-82.1c-34.8,1.9-69.8,4.2-105.3,2.9l0.1,472.8h103.5V825.2H1332c16.7,0,31.9-2.5,45.7-7.4c13.8-5,26.2-11.8,37.1-20.6
		c11-8.8,20.6-19.2,28.8-31.2C1451.9,753.8,1458.7,740.7,1464.2,726.4C1464.2,726.4,1464.2,726.4,1464.2,726.4z"/>
	<path class="st0" d="M944.7,557.8c12.5-27.5,40.2-46.8,72.4-46.8h283.8c43.7,0,79.4,35.7,79.4,79.4v86c32.8,0,66,0,98.9,0
		c2-13.5,3-27.1,3-40.9c0.1-15.6-1.2-31.2-3.9-46.6c-2.7-15.4-6.8-30.2-12.3-44.3c-5.5-14.1-12.3-27.2-20.6-39.2
		c-8.2-12.1-17.9-22.5-29-31.3c-11.1-8.8-23.6-15.7-37.4-20.8c-13.8-5.1-29.1-7.6-45.8-7.6h-444c-8.6,0-16.3,1.7-23.3,5.1
		c-7,3.4-13,8.3-18.1,14.6c-5.1,6.3-8.9,13.8-11.7,22.6c-2.7,8.8-4.1,18.5-4.1,29.2l0,40.7C869.7,557.4,907.2,558.5,944.7,557.8z"/>
	<path class="st0" d="M1492.8,585.9c46.3,0.1,92.7,0.2,139,0.3c18.6,0.1,35.1,8.1,38,18.3c1.6,5.7-0.2,11.1-3.4,16.5
		c-6.1,10.2-16.6,18.9-28.9,27c-24.5,16.2-54.4,28.7-87.4,39c-9.8,3.1-19.4,5.7-31.1,4.4c-1.8-0.2-3.8,0-5.7,0
		c-89.4,0-178.9,0-268.3,0c0,0.4,0,0.8,0,1.1c-20.5,0-41-0.1-61.5,0c-74.3,0.2-148.5,0.5-222.8,0.7c-2.5,0-4.2,0.2-5.4,0.6
		c0.8,9.3,0.4,20,5.4,27.8c58.4-0.3,116.7-0.6,175.1-0.9c125.9-0.7,251.8-1.4,377.7-2c23.7-0.1,46.5-1.8,66.2-10.1
		c1.7-0.7,3.6-1.2,5.4-1.8c38.5-13,72.9-28.6,99.9-48.8c15.7-11.7,27.8-24.4,32.9-38.9c5.3-15.2,1.7-29.7-16.9-41.7
		c-18.4-11.9-40.3-20.9-71.3-18.7c0,0,0,0,0,0c-46.1-0.2-92.3-0.3-138.4-0.6c-5.2,0-7,0.7-6.7,3.7c0.6,6.5,0.5,13.1,0.7,19.6
		C1485.4,585.9,1485.4,585.9,1492.8,585.9z"/>
	<path class="st0" d="M615.2,696.3c-9,0.3-10.8-0.6-7.3-5.2c20.3-26.3,47.1-50.7,82.1-72.6c10.8-6.7,23.2-12.8,35.7-18.7
		c8.5-4,18.8-5.8,30.5-5.8c30.3,0,496.4-9.6,604.3-11.9c7.1-0.2,7.1-0.2,7-3.8c-0.2-5.7-0.4-11.4-0.6-17.1c-0.1-3.8-0.1-3.8-7.4-3.6
		c-96.6,1.9-193.3,3.8-289.9,5.7c-89.7,1.8-179.4,3.5-269.1,5.3c-13.1,0.3-26.2,1-39.4,1.5c-11.6,0.5-22.9,2.1-32.5,5.6
		c-16.6,6-33.7,12-48.4,19.2c-28.5,14-51.2,30.5-71.1,48.1c-20.1,17.8-34.4,36.7-40.9,57c-0.7,2.3-1.8,4.6-3,6.8
		c-1.6,2.9-1.7,5.6,1.6,8c5.5,4,12.6,6.9,22.5,7.2c6,0.2,12.1,0.2,18.1,0c34.6-0.9,69.3-2,103.9-2.9c36.1-1,72.2-2.1,108.3-3
		c0.1-8.5,0.2-17,0.3-25.5c-38.9,1.1-77.8,2.1-116.7,3.1C673.8,694.5,644.5,695.4,615.2,696.3z"/>
	<path class="st0" d="M1592.5,644.6c6.5-0.6,13.4-2,18.1-8.3c3-4,2.8-8.6-0.4-11.9c-8.2-8.5-30.4-4.1-34.6,6.9
		c-0.1,0.4-0.3,0.7-0.4,1.1c-0.7,3.1-0.2,5.4,2.5,7.6C1581.9,643.3,1586.6,644.4,1592.5,644.6z M1589.9,629
		c3.7-0.5,7.5-0.9,11.1-0.3c3,0.5,3.5,3.5,0.8,5.2c-3.1,1.9-6.8,3-10.9,4.8c-2.5-1.5-6.4-2.6-6.7-4.3
		C1583.6,631.2,1587,629.4,1589.9,629z"/>
</g>
</svg>
